<svg width="64" height="64" viewBox="0 0 64 64" fill="none" xmlns="http://www.w3.org/2000/svg">
  <rect width="64" height="64" rx="18" fill="url(#weatherfit-favicon)"/>
  <circle cx="45" cy="18" r="8" fill="#FFD166"/>
  <path d="M21.3 40C16.3 40 12.2 36 12.2 31C12.2 26.2 15.9 22.3 20.5 21.9C22.2 17.5 26.6 14.4 31.6 14.4C37.6 14.4 42.5 18.8 43.4 24.6C48.8 25.3 53 29.9 53 35.5C53 41.6 48.1 46.5 42 46.5H21.3V40Z" fill="white" fill-opacity="0.96"/>
  <path d="M22.9 40.1H41.6C44.7 40.1 47.2 37.7 47.2 34.6C47.2 31.5 44.7 29.1 41.6 29.1H37.8L37.6 25.5C37.3 21.8 34.4 18.9 30.7 18.9C27.3 18.9 24.5 21.3 23.8 24.5L23.2 27.3H20.7C18.3 27.3 16.4 29.2 16.4 31.6C16.4 33.9 18.3 35.8 20.7 35.8H22.9V40.1Z" fill="#0B1220" fill-opacity="0.16"/>
  <defs>
    <linearGradient id="weatherfit-favicon" x1="6" y1="5" x2="58" y2="59" gradientUnits="userSpaceOnUse">
      <stop stop-color="#7DD3FC"/>
      <stop offset="0.5" stop-color="#38BDF8"/>
      <stop offset="1" stop-color="#22C55E"/>
    </linearGradient>
  </defs>
</svg>
