<svg width="184" height="40" viewBox="0 0 184 40" fill="none" xmlns="http://www.w3.org/2000/svg">
  <rect width="40" height="40" rx="12" fill="url(#weatherfit-mark)"/>
  <path d="M13 24.6C9.9 24.6 7.4 22.2 7.4 19.1C7.4 16.2 9.6 13.9 12.4 13.6C13.5 10.9 16.1 9 19.2 9C22.9 9 25.9 11.7 26.5 15.2C29.9 15.6 32.6 18.5 32.6 22C32.6 25.8 29.6 28.8 25.8 28.8H13V24.6Z" fill="white" fill-opacity="0.95"/>
  <circle cx="28" cy="11" r="5" fill="#FFD166"/>
  <path d="M14.2 25.3H25.6C27.5 25.3 29.1 23.8 29.1 21.9C29.1 20 27.5 18.5 25.6 18.5H23.3L23.2 16.3C23 14 21.2 12.2 18.9 12.2C16.8 12.2 15.1 13.7 14.7 15.7L14.3 17.4H12.7C11.2 17.4 10 18.6 10 20.1C10 21.5 11.2 22.7 12.7 22.7H14.2V25.3Z" fill="#0B1220" fill-opacity="0.16"/>
  <text x="52" y="27" fill="#0B1220" font-family="Cabinet Grotesk, Arial, sans-serif" font-size="24" font-weight="700" letter-spacing="0">WeatherFit</text>
  <defs>
    <linearGradient id="weatherfit-mark" x1="4" y1="4" x2="36" y2="36" gradientUnits="userSpaceOnUse">
      <stop stop-color="#7DD3FC"/>
      <stop offset="0.52" stop-color="#38BDF8"/>
      <stop offset="1" stop-color="#22C55E"/>
    </linearGradient>
  </defs>
</svg>
